<svg width="38" height="52" viewBox="0 0 38 52" fill="none" xmlns="http://www.w3.org/2000/svg">
<rect width="38" height="52" fill="black"/>
<path d="M18.9998 52C8.49993 51.9398 0.0208331 43.7378 0 33.6105C0 23.6838 8.87492 21.3575 18.9998 0C29.1664 21.3575 37.9997 23.6838 37.9997 33.6105C38.0622 43.6976 29.6039 51.9398 19.1248 52H19.104H18.9998Z" fill="#EBF6F8"/>
<path d="M6.31244 20.121C8.77075 20.121 9.29159 21.8551 12.5624 21.8551C15.2499 21.8551 16.0624 20 19.104 20C22.1456 20 22.6248 21.8551 25.1664 21.8551C28.6456 21.8551 28.9164 20.0403 31.6455 20.0403L31.8747 20.3428C35.6038 25.1821 37.9997 28.3075 37.9997 33.5098C38.0622 43.6522 29.6039 51.9395 19.1248 52H19.104H18.9998C8.49993 51.9395 0.0208331 43.6723 0 33.5098C0 28.2067 2.47914 25.0611 6.31244 20.121Z" fill="#03A3FD"/>
<path d="M26 31.7099V35.2781H21.4547V40H17.5586V35.2781H13V31.7099H17.5586V27H21.4547V31.7099H26Z" fill="white"/>
</svg>
