<svg width="88" height="72" viewBox="0 0 141 123" fill="none" xmlns="http://www.w3.org/2000/svg">
<path d="M4.70062 119.818C3.93788 119.818 3.45594 118.999 3.82674 118.332L19.8266 89.5709C20.2077 88.8857 21.1932 88.8857 21.5744 89.5709L37.5742 118.332C37.945 118.999 37.4631 119.818 36.7003 119.818H4.70062Z" stroke="white" stroke-width="6.18"/>
<path d="M94.8455 60.1818C95.6045 60.1818 96.0869 60.9942 95.7234 61.6606L71.3778 106.299C70.9988 106.994 70.0009 106.994 69.6219 106.299L45.2763 61.6606C44.9128 60.9942 45.3951 60.1818 46.1542 60.1818H94.8455Z" stroke="#E11D48" stroke-width="6.18"/>
<path d="M104.701 119.818C103.938 119.818 103.456 118.999 103.827 118.332L119.827 89.5709C120.208 88.8857 121.193 88.8857 121.574 89.5709L137.574 118.332C137.945 118.999 137.463 119.818 136.7 119.818H104.701Z" stroke="white" stroke-width="6.18"/>
<path d="M53.7006 34.8182C52.9379 34.8182 52.4559 33.9986 52.8267 33.332L68.8266 4.57088C69.2077 3.88573 70.1932 3.88573 70.5744 4.57088L86.5742 33.332C86.945 33.9986 86.4631 34.8182 85.7003 34.8182H53.7006Z" stroke="white" stroke-width="6.18"/>
</svg>
